<svg xmlns="http://www.w3.org/2000/svg" width="1400" height="400" viewBox="0 0 1400 400">
<rect width="1400" height="400" fill="#F7F6F3"/>
<g transform="translate(45 65)"><g>
<path d="M102 32 C52 32 24 63 24 112 V164 C24 205 49 230 87 236 L87 198 C70 193 61 181 61 163 V113 C61 85 77 69 104 69 H153 C181 69 197 85 197 113 V151 L234 130 V111 C234 62 204 32 154 32 Z" fill="#102238"/>
<path d="M104 88 H151 C166 88 176 98 176 113 V159 L126 188 L82 169 V113 C82 98 90 88 104 88 Z" fill="#FFFFFF"/>
<path d="M126 105 L169 124 V161 L126 185 Z" fill="#FF8A00"/>
<path d="M82 169 L126 188 L176 159 L230 215 L172 215 L139 194 L104 216 L63 201 Z" fill="#102238"/>
</g></g>
<text x="330" y="275" font-family="Plus Jakarta Sans, Plus Jakarta Sans Bold, Nunito Sans, Trebuchet MS, Verdana, sans-serif" font-size="230" font-weight="900" letter-spacing="-14" fill="#102238">QUAI</text>
</svg>